<mxfile host="65bd71144e">
    <diagram id="O-mQP_ZHf2wh6EsdOWU3" name="Page-1">
        <mxGraphModel dx="2973" dy="1826" grid="1" gridSize="10" guides="1" tooltips="1" connect="1" arrows="1" fold="1" page="1" pageScale="1" pageWidth="827" pageHeight="1169" math="0" shadow="0">
            <root>
                <mxCell id="0"/>
                <mxCell id="1" parent="0"/>
                <mxCell id="2" value="&lt;div style=&quot;font-size: 40px;&quot;&gt;IBM Security Identity Manager Adapters 6.0 and 7.0 are vulnerable to a&lt;/div&gt;&lt;div style=&quot;font-size: 40px;&quot;&gt;heap-based buffer overflow, caused by improper bounds checking. A&lt;/div&gt;&lt;div style=&quot;font-size: 40px;&quot;&gt;remote authenticated attacker could overflow the and cause the server&lt;/div&gt;&lt;div style=&quot;font-size: 40px;&quot;&gt;to crash. IBM X-Force ID: 199249.&lt;/div&gt;" style="text;html=1;align=center;verticalAlign=middle;resizable=0;points=[];autosize=1;strokeColor=none;fillColor=none;fontSize=40;" vertex="1" parent="1">
                    <mxGeometry x="-555" y="410" width="1270" height="200" as="geometry"/>
                </mxCell>
                <mxCell id="4" value="&lt;div style=&quot;font-size: 40px;&quot;&gt;IBM Security Identity Manager Adapters 6.0 and 7.0 are vulnerable to a&lt;/div&gt;&lt;div style=&quot;font-size: 40px;&quot;&gt;heap-based buffer overflow, caused by improper bounds checking. A&lt;/div&gt;&lt;div style=&quot;font-size: 40px;&quot;&gt;remote authenticated attacker could overflow the and cause the server&lt;/div&gt;&lt;div style=&quot;font-size: 40px;&quot;&gt;to crash. IBM X-Force ID: 199249.&lt;/div&gt;" style="text;html=1;align=center;verticalAlign=middle;resizable=0;points=[];autosize=1;strokeColor=none;fillColor=none;fontSize=40;" vertex="1" parent="1">
                    <mxGeometry x="1090" y="410" width="1270" height="200" as="geometry"/>
                </mxCell>
            </root>
        </mxGraphModel>
    </diagram>
</mxfile>